<?xml version="1.0" encoding="UTF-8" standalone="no"?>
<!DOCTYPE svg PUBLIC "-//W3C//DTD SVG 1.1//EN"
 "http://www.w3.org/Graphics/SVG/1.1/DTD/svg11.dtd">
<!-- Generated by graphviz version 14.1.1 (0)
 -->
<!-- Title: CallGraph Pages: 1 -->
<svg width="1271pt" height="814pt"
 viewBox="0.00 0.00 1271.00 814.00" xmlns="http://www.w3.org/2000/svg" xmlns:xlink="http://www.w3.org/1999/xlink">
<g id="graph0" class="graph" transform="scale(1 1) rotate(0) translate(4 810)">
<title>CallGraph</title>
<polygon fill="white" stroke="none" points="-4,4 -4,-810 1266.5,-810 1266.5,4 -4,4"/>
<g id="clust1" class="cluster">
<title>cluster_0</title>
<path fill="none" stroke="black" d="M713,-402C713,-402 1215.5,-402 1215.5,-402 1221.5,-402 1227.5,-408 1227.5,-414 1227.5,-414 1227.5,-575 1227.5,-575 1227.5,-581 1221.5,-587 1215.5,-587 1215.5,-587 713,-587 713,-587 707,-587 701,-581 701,-575 701,-575 701,-414 701,-414 701,-408 707,-402 713,-402"/>
<text xml:space="preserve" text-anchor="middle" x="964.25" y="-569.7" font-family="Times,serif" font-size="14.00">include/codegen/IRGenerator.hpp</text>
</g>
<g id="clust2" class="cluster">
<title>cluster_1</title>
<path fill="none" stroke="black" d="M407.12,-420C407.12,-420 636.38,-420 636.38,-420 642.38,-420 648.38,-426 648.38,-432 648.38,-432 648.38,-539 648.38,-539 648.38,-545 642.38,-551 636.38,-551 636.38,-551 407.12,-551 407.12,-551 401.12,-551 395.12,-545 395.12,-539 395.12,-539 395.12,-432 395.12,-432 395.12,-426 401.12,-420 407.12,-420"/>
<text xml:space="preserve" text-anchor="middle" x="521.75" y="-533.7" font-family="Times,serif" font-size="14.00">include/driver/ArgumentParser.hpp</text>
</g>
<g id="clust3" class="cluster">
<title>cluster_2</title>
<path fill="none" stroke="black" d="M736.25,-178C736.25,-178 888.25,-178 888.25,-178 894.25,-178 900.25,-184 900.25,-190 900.25,-190 900.25,-243 900.25,-243 900.25,-249 894.25,-255 888.25,-255 888.25,-255 736.25,-255 736.25,-255 730.25,-255 724.25,-249 724.25,-243 724.25,-243 724.25,-190 724.25,-190 724.25,-184 730.25,-178 736.25,-178"/>
<text xml:space="preserve" text-anchor="middle" x="812.25" y="-237.7" font-family="Times,serif" font-size="14.00">include/parser/Parser.hpp</text>
</g>
<g id="clust4" class="cluster">
<title>cluster_3</title>
<path fill="none" stroke="black" d="M702.88,-93C702.88,-93 921.62,-93 921.62,-93 927.62,-93 933.62,-99 933.62,-105 933.62,-105 933.62,-158 933.62,-158 933.62,-164 927.62,-170 921.62,-170 921.62,-170 702.88,-170 702.88,-170 696.88,-170 690.88,-164 690.88,-158 690.88,-158 690.88,-105 690.88,-105 690.88,-99 696.88,-93 702.88,-93"/>
<text xml:space="preserve" text-anchor="middle" x="812.25" y="-152.7" font-family="Times,serif" font-size="14.00">include/semantics/SemanticAnalyzer.hpp</text>
</g>
<g id="clust5" class="cluster">
<title>cluster_4</title>
<path fill="none" stroke="black" d="M690.5,-263C690.5,-263 934,-263 934,-263 940,-263 946,-269 946,-275 946,-275 946,-382 946,-382 946,-388 940,-394 934,-394 934,-394 690.5,-394 690.5,-394 684.5,-394 678.5,-388 678.5,-382 678.5,-382 678.5,-275 678.5,-275 678.5,-269 684.5,-263 690.5,-263"/>
<text xml:space="preserve" text-anchor="middle" x="812.25" y="-376.7" font-family="Times,serif" font-size="14.00">src/codegen/IRCoreConstructorDebug.cpp</text>
</g>
<g id="clust6" class="cluster">
<title>cluster_5</title>
<path fill="none" stroke="black" d="M1014,-263C1014,-263 1206.5,-263 1206.5,-263 1212.5,-263 1218.5,-269 1218.5,-275 1218.5,-275 1218.5,-328 1218.5,-328 1218.5,-334 1212.5,-340 1206.5,-340 1206.5,-340 1014,-340 1014,-340 1008,-340 1002,-334 1002,-328 1002,-328 1002,-275 1002,-275 1002,-269 1008,-263 1014,-263"/>
<text xml:space="preserve" text-anchor="middle" x="1110.25" y="-322.7" font-family="Times,serif" font-size="14.00">src/codegen/IRCoreSymbols.cpp</text>
</g>
<g id="clust7" class="cluster">
<title>cluster_6</title>
<path fill="none" stroke="black" d="M150,-559C150,-559 630.38,-559 630.38,-559 636.38,-559 642.38,-565 642.38,-571 642.38,-571 642.38,-786 642.38,-786 642.38,-792 636.38,-798 630.38,-798 630.38,-798 150,-798 150,-798 144,-798 138,-792 138,-786 138,-786 138,-571 138,-571 138,-565 144,-559 150,-559"/>
<text xml:space="preserve" text-anchor="middle" x="390.19" y="-780.7" font-family="Times,serif" font-size="14.00">src/driver/ArgumentParser.cpp</text>
</g>
<g id="clust8" class="cluster">
<title>cluster_7</title>
<path fill="none" stroke="black" d="M150.75,-128C150.75,-128 617.62,-128 617.62,-128 623.62,-128 629.62,-134 629.62,-140 629.62,-140 629.62,-355 629.62,-355 629.62,-361 623.62,-367 617.62,-367 617.62,-367 150.75,-367 150.75,-367 144.75,-367 138.75,-361 138.75,-355 138.75,-355 138.75,-140 138.75,-140 138.75,-134 144.75,-128 150.75,-128"/>
<text xml:space="preserve" text-anchor="middle" x="384.19" y="-349.7" font-family="Times,serif" font-size="14.00">src/driver/CompilerDriver.cpp</text>
</g>
<g id="clust9" class="cluster">
<title>cluster_8</title>
<path fill="none" stroke="black" d="M397,-12C397,-12 646.5,-12 646.5,-12 652.5,-12 658.5,-18 658.5,-24 658.5,-24 658.5,-77 658.5,-77 658.5,-83 652.5,-89 646.5,-89 646.5,-89 397,-89 397,-89 391,-89 385,-83 385,-77 385,-77 385,-24 385,-24 385,-18 391,-12 397,-12"/>
<text xml:space="preserve" text-anchor="middle" x="521.75" y="-71.7" font-family="Times,serif" font-size="14.00">src/driver/CompilerDriverPreprocess.cpp</text>
</g>
<g id="clust10" class="cluster">
<title>cluster_9</title>
<path fill="none" stroke="black" d="M20,-586C20,-586 106,-586 106,-586 112,-586 118,-592 118,-598 118,-598 118,-651 118,-651 118,-657 112,-663 106,-663 106,-663 20,-663 20,-663 14,-663 8,-657 8,-651 8,-651 8,-598 8,-598 8,-592 14,-586 20,-586"/>
<text xml:space="preserve" text-anchor="middle" x="63" y="-645.7" font-family="Times,serif" font-size="14.00">src/main.cpp</text>
</g>
<g id="clust11" class="cluster">
<title>cluster_10</title>
<path fill="none" stroke="black" d="M978,-8C978,-8 1242.5,-8 1242.5,-8 1248.5,-8 1254.5,-14 1254.5,-20 1254.5,-20 1254.5,-73 1254.5,-73 1254.5,-79 1248.5,-85 1242.5,-85 1242.5,-85 978,-85 978,-85 972,-85 966,-79 966,-73 966,-73 966,-20 966,-20 966,-14 972,-8 978,-8"/>
<text xml:space="preserve" text-anchor="middle" x="1110.25" y="-67.7" font-family="Times,serif" font-size="14.00">src/preprocessor/PreprocessorBuiltins.cpp</text>
</g>
<g id="clust12" class="cluster">
<title>cluster_11</title>
<path fill="none" stroke="black" d="M701.75,-8C701.75,-8 922.75,-8 922.75,-8 928.75,-8 934.75,-14 934.75,-20 934.75,-20 934.75,-73 934.75,-73 934.75,-79 928.75,-85 922.75,-85 922.75,-85 701.75,-85 701.75,-85 695.75,-85 689.75,-79 689.75,-73 689.75,-73 689.75,-20 689.75,-20 689.75,-14 695.75,-8 701.75,-8"/>
<text xml:space="preserve" text-anchor="middle" x="812.25" y="-67.7" font-family="Times,serif" font-size="14.00">src/preprocessor/PreprocessorCore.cpp</text>
</g>
<!-- c:@N@cc1@S@DebugLogger@F@DebugLogger# -->
<g id="node1" class="node">
<title>c:@N@cc1@S@DebugLogger@F@DebugLogger#</title>
<polygon fill="none" stroke="black" points="1219.5,-554 1001,-554 1001,-518 1219.5,-518 1219.5,-554"/>
<text xml:space="preserve" text-anchor="middle" x="1110.25" y="-532.12" font-family="Times,serif" font-size="10.00">include/codegen/IRGenerator.hpp::DebugLogger</text>
</g>
<!-- c:@N@cc1@S@DebugLogger@F@instance#S -->
<g id="node2" class="node">
<title>c:@N@cc1@S@DebugLogger@F@instance#S</title>
<polygon fill="none" stroke="black" points="909.88,-554 714.62,-554 714.62,-518 909.88,-518 909.88,-554"/>
<text xml:space="preserve" text-anchor="middle" x="812.25" y="-532.12" font-family="Times,serif" font-size="10.00">include/codegen/IRGenerator.hpp::instance</text>
</g>
<!-- c:@N@cc1@S@DebugLogger@F@instance#S&#45;&gt;c:@N@cc1@S@DebugLogger@F@DebugLogger# -->
<g id="edge7" class="edge">
<title>c:@N@cc1@S@DebugLogger@F@instance#S&#45;&gt;c:@N@cc1@S@DebugLogger@F@DebugLogger#</title>
<path fill="none" stroke="black" d="M910.17,-536C935.47,-536 963.04,-536 989.38,-536"/>
<polygon fill="black" stroke="black" points="989.07,-539.5 999.07,-536 989.07,-532.5 989.07,-539.5"/>
</g>
<!-- c:@N@cc1@S@DebugLogger@F@setEnabled#b# -->
<g id="node3" class="node">
<title>c:@N@cc1@S@DebugLogger@F@setEnabled#b#</title>
<polygon fill="none" stroke="black" points="915.5,-500 709,-500 709,-464 915.5,-464 915.5,-500"/>
<text xml:space="preserve" text-anchor="middle" x="812.25" y="-478.12" font-family="Times,serif" font-size="10.00">include/codegen/IRGenerator.hpp::setEnabled</text>
</g>
<!-- c:@N@cc1@S@IRGenerator@F@hadError#1 -->
<g id="node4" class="node">
<title>c:@N@cc1@S@IRGenerator@F@hadError#1</title>
<polygon fill="none" stroke="black" points="910.62,-446 713.88,-446 713.88,-410 910.62,-410 910.62,-446"/>
<text xml:space="preserve" text-anchor="middle" x="812.25" y="-424.12" font-family="Times,serif" font-size="10.00">include/codegen/IRGenerator.hpp::hadError</text>
</g>
<!-- c:@S@CompilerOptions@F@CompilerOptions# -->
<g id="node5" class="node">
<title>c:@S@CompilerOptions@F@CompilerOptions#</title>
<polygon fill="none" stroke="black" points="640.38,-464 403.12,-464 403.12,-428 640.38,-428 640.38,-464"/>
<text xml:space="preserve" text-anchor="middle" x="521.75" y="-442.12" font-family="Times,serif" font-size="10.00">include/driver/ArgumentParser.hpp::CompilerOptions</text>
</g>
<!-- c:@S@CompilerOptions@F@CompilerOptions#&amp;&amp;$@S@CompilerOptions# -->
<g id="node6" class="node">
<title>c:@S@CompilerOptions@F@CompilerOptions#&amp;&amp;$@S@CompilerOptions#</title>
<polygon fill="none" stroke="black" points="640.38,-518 403.12,-518 403.12,-482 640.38,-482 640.38,-518"/>
<text xml:space="preserve" text-anchor="middle" x="521.75" y="-496.12" font-family="Times,serif" font-size="10.00">include/driver/ArgumentParser.hpp::CompilerOptions</text>
</g>
<!-- c:@N@cc1@S@Parser@F@hadError#1 -->
<g id="node7" class="node">
<title>c:@N@cc1@S@Parser@F@hadError#1</title>
<polygon fill="none" stroke="black" points="892.25,-222 732.25,-222 732.25,-186 892.25,-186 892.25,-222"/>
<text xml:space="preserve" text-anchor="middle" x="812.25" y="-200.12" font-family="Times,serif" font-size="10.00">include/parser/Parser.hpp::hadError</text>
</g>
<!-- c:@N@cc1@S@SemanticAnalyzer@F@hadError#1 -->
<g id="node8" class="node">
<title>c:@N@cc1@S@SemanticAnalyzer@F@hadError#1</title>
<polygon fill="none" stroke="black" points="925.62,-137 698.88,-137 698.88,-101 925.62,-101 925.62,-137"/>
<text xml:space="preserve" text-anchor="middle" x="812.25" y="-115.12" font-family="Times,serif" font-size="10.00">include/semantics/SemanticAnalyzer.hpp::hadError</text>
</g>
<!-- c:@N@cc1@S@IRGenerator@F@IRGenerator#b# -->
<g id="node9" class="node">
<title>c:@N@cc1@S@IRGenerator@F@IRGenerator#b#</title>
<polygon fill="none" stroke="black" points="935.38,-307 689.12,-307 689.12,-271 935.38,-271 935.38,-307"/>
<text xml:space="preserve" text-anchor="middle" x="812.25" y="-285.12" font-family="Times,serif" font-size="10.00">src/codegen/IRCoreConstructorDebug.cpp::IRGenerator</text>
</g>
<!-- c:@N@cc1@S@IRGenerator@F@enterScope# -->
<g id="node11" class="node">
<title>c:@N@cc1@S@IRGenerator@F@enterScope#</title>
<polygon fill="none" stroke="black" points="1210.5,-307 1010,-307 1010,-271 1210.5,-271 1210.5,-307"/>
<text xml:space="preserve" text-anchor="middle" x="1110.25" y="-285.12" font-family="Times,serif" font-size="10.00">src/codegen/IRCoreSymbols.cpp::enterScope</text>
</g>
<!-- c:@N@cc1@S@IRGenerator@F@IRGenerator#b#&#45;&gt;c:@N@cc1@S@IRGenerator@F@enterScope# -->
<g id="edge8" class="edge">
<title>c:@N@cc1@S@IRGenerator@F@IRGenerator#b#&#45;&gt;c:@N@cc1@S@IRGenerator@F@enterScope#</title>
<path fill="none" stroke="black" d="M935.78,-289C956.58,-289 978.07,-289 998.55,-289"/>
<polygon fill="black" stroke="black" points="998.29,-292.5 1008.29,-289 998.29,-285.5 998.29,-292.5"/>
</g>
<!-- c:@N@cc1@S@IRGenerator@F@setDebugInfo#b#&amp;1$@N@std@N@__cxx11@S@basic_string&gt;#C#$@N@std@S@char_traits&gt;#C#$@N@std@S@allocator&gt;#C# -->
<g id="node10" class="node">
<title>c:@N@cc1@S@IRGenerator@F@setDebugInfo#b#&amp;1$@N@std@N@__cxx11@S@basic_string&gt;#C#$@N@std@S@char_traits&gt;#C#$@N@std@S@allocator&gt;#C#</title>
<polygon fill="none" stroke="black" points="938,-361 686.5,-361 686.5,-325 938,-325 938,-361"/>
<text xml:space="preserve" text-anchor="middle" x="812.25" y="-339.12" font-family="Times,serif" font-size="10.00">src/codegen/IRCoreConstructorDebug.cpp::setDebugInfo</text>
</g>
<!-- c:@S@ArgumentParser@F@ArgumentParser#I#**C# -->
<g id="node12" class="node">
<title>c:@S@ArgumentParser@F@ArgumentParser#I#**C#</title>
<polygon fill="none" stroke="black" points="357,-603 146,-603 146,-567 357,-567 357,-603"/>
<text xml:space="preserve" text-anchor="middle" x="251.5" y="-581.12" font-family="Times,serif" font-size="10.00">src/driver/ArgumentParser.cpp::ArgumentParser</text>
</g>
<!-- c:@S@ArgumentParser@F@isOption#&amp;1$@N@std@N@__cxx11@S@basic_string&gt;#C#$@N@std@S@char_traits&gt;#C#$@N@std@S@allocator&gt;#C#1 -->
<g id="node13" class="node">
<title>c:@S@ArgumentParser@F@isOption#&amp;1$@N@std@N@__cxx11@S@basic_string&gt;#C#$@N@std@S@char_traits&gt;#C#$@N@std@S@allocator&gt;#C#1</title>
<polygon fill="none" stroke="black" points="612.62,-630 430.88,-630 430.88,-594 612.62,-594 612.62,-630"/>
<text xml:space="preserve" text-anchor="middle" x="521.75" y="-608.12" font-family="Times,serif" font-size="10.00">src/driver/ArgumentParser.cpp::isOption</text>
</g>
<!-- c:@S@ArgumentParser@F@parse# -->
<g id="node14" class="node">
<title>c:@S@ArgumentParser@F@parse#</title>
<polygon fill="none" stroke="black" points="334.88,-657 168.12,-657 168.12,-621 334.88,-621 334.88,-657"/>
<text xml:space="preserve" text-anchor="middle" x="251.5" y="-635.12" font-family="Times,serif" font-size="10.00">src/driver/ArgumentParser.cpp::parse</text>
</g>
<!-- c:@S@ArgumentParser@F@parse#&#45;&gt;c:@S@CompilerOptions@F@CompilerOptions# -->
<g id="edge12" class="edge">
<title>c:@S@ArgumentParser@F@parse#&#45;&gt;c:@S@CompilerOptions@F@CompilerOptions#</title>
<path fill="none" stroke="black" d="M335.36,-627.3C343.43,-623.45 350.88,-618.46 357,-612 400.34,-566.25 340.38,-517.51 385,-473 387.55,-470.45 390.28,-468.11 393.14,-465.96"/>
<polygon fill="black" stroke="black" points="394.98,-468.94 401.44,-460.54 391.15,-463.07 394.98,-468.94"/>
</g>
<!-- c:@S@ArgumentParser@F@parse#&#45;&gt;c:@S@CompilerOptions@F@CompilerOptions#&amp;&amp;$@S@CompilerOptions# -->
<g id="edge13" class="edge">
<title>c:@S@ArgumentParser@F@parse#&#45;&gt;c:@S@CompilerOptions@F@CompilerOptions#&amp;&amp;$@S@CompilerOptions#</title>
<path fill="none" stroke="black" d="M335.12,-625.06C342.99,-621.61 350.46,-617.33 357,-612 378.88,-594.18 364.34,-574.23 385,-555 399.92,-541.11 418.81,-530.53 437.71,-522.54"/>
<polygon fill="black" stroke="black" points="438.79,-525.88 446.78,-518.93 436.2,-519.38 438.79,-525.88"/>
</g>
<!-- c:@S@ArgumentParser@F@parse#&#45;&gt;c:@S@ArgumentParser@F@isOption#&amp;1$@N@std@N@__cxx11@S@basic_string&gt;#C#$@N@std@S@char_traits&gt;#C#$@N@std@S@allocator&gt;#C#1 -->
<g id="edge10" class="edge">
<title>c:@S@ArgumentParser@F@parse#&#45;&gt;c:@S@ArgumentParser@F@isOption#&amp;1$@N@std@N@__cxx11@S@basic_string&gt;#C#$@N@std@S@char_traits&gt;#C#$@N@std@S@allocator&gt;#C#1</title>
<path fill="none" stroke="black" d="M335.17,-630.68C361.69,-628.01 391.37,-625.02 419.09,-622.23"/>
<polygon fill="black" stroke="black" points="419.31,-625.73 428.91,-621.24 418.61,-618.76 419.31,-625.73"/>
</g>
<!-- c:@S@ArgumentParser@F@parseOutputOption#&amp;I#&amp;$@S@CompilerOptions# -->
<g id="node15" class="node">
<title>c:@S@ArgumentParser@F@parseOutputOption#&amp;I#&amp;$@S@CompilerOptions#</title>
<polygon fill="none" stroke="black" points="634.38,-684 409.12,-684 409.12,-648 634.38,-648 634.38,-684"/>
<text xml:space="preserve" text-anchor="middle" x="521.75" y="-662.12" font-family="Times,serif" font-size="10.00">src/driver/ArgumentParser.cpp::parseOutputOption</text>
</g>
<!-- c:@S@ArgumentParser@F@parse#&#45;&gt;c:@S@ArgumentParser@F@parseOutputOption#&amp;I#&amp;$@S@CompilerOptions# -->
<g id="edge11" class="edge">
<title>c:@S@ArgumentParser@F@parse#&#45;&gt;c:@S@ArgumentParser@F@parseOutputOption#&amp;I#&amp;$@S@CompilerOptions#</title>
<path fill="none" stroke="black" d="M335.17,-647.32C354.88,-649.3 376.33,-651.46 397.42,-653.59"/>
<polygon fill="black" stroke="black" points="396.94,-657.06 407.24,-654.57 397.64,-650.09 396.94,-657.06"/>
</g>
<!-- c:@S@ArgumentParser@F@printUsage#*1C#S -->
<g id="node16" class="node">
<title>c:@S@ArgumentParser@F@printUsage#*1C#S</title>
<polygon fill="none" stroke="black" points="346.88,-711 156.12,-711 156.12,-675 346.88,-675 346.88,-711"/>
<text xml:space="preserve" text-anchor="middle" x="251.5" y="-689.12" font-family="Times,serif" font-size="10.00">src/driver/ArgumentParser.cpp::printUsage</text>
</g>
<!-- c:@S@ArgumentParser@F@printVersion#S -->
<g id="node17" class="node">
<title>c:@S@ArgumentParser@F@printVersion#S</title>
<polygon fill="none" stroke="black" points="349.5,-765 153.5,-765 153.5,-729 349.5,-729 349.5,-765"/>
<text xml:space="preserve" text-anchor="middle" x="251.5" y="-743.12" font-family="Times,serif" font-size="10.00">src/driver/ArgumentParser.cpp::printVersion</text>
</g>
<!-- c:@S@CompilerDriver@F@CompilerDriver#&amp;1$@S@CompilerOptions# -->
<g id="node18" class="node">
<title>c:@S@CompilerDriver@F@CompilerDriver#&amp;1$@S@CompilerOptions#</title>
<polygon fill="none" stroke="black" points="356.25,-334 146.75,-334 146.75,-298 356.25,-298 356.25,-334"/>
<text xml:space="preserve" text-anchor="middle" x="251.5" y="-312.12" font-family="Times,serif" font-size="10.00">src/driver/CompilerDriver.cpp::CompilerDriver</text>
</g>
<!-- c:@S@CompilerDriver@F@CompilerDriver#&amp;1$@S@CompilerOptions#&#45;&gt;c:@N@cc1@S@DebugLogger@F@instance#S -->
<g id="edge14" class="edge">
<title>c:@S@CompilerDriver@F@CompilerDriver#&amp;1$@S@CompilerOptions#&#45;&gt;c:@N@cc1@S@DebugLogger@F@instance#S</title>
<path fill="none" stroke="black" d="M284.06,-334.44C310.23,-348.87 348.87,-368.25 385,-379 443.79,-396.49 613.49,-374.34 658.5,-416 689.53,-444.72 648.44,-479.27 678.5,-509 685.73,-516.15 694.3,-521.65 703.56,-525.87"/>
<polygon fill="black" stroke="black" points="702.27,-529.12 712.86,-529.53 704.84,-522.61 702.27,-529.12"/>
</g>
<!-- c:@S@CompilerDriver@F@CompilerDriver#&amp;1$@S@CompilerOptions#&#45;&gt;c:@N@cc1@S@DebugLogger@F@setEnabled#b# -->
<g id="edge15" class="edge">
<title>c:@S@CompilerDriver@F@CompilerDriver#&amp;1$@S@CompilerOptions#&#45;&gt;c:@N@cc1@S@DebugLogger@F@setEnabled#b#</title>
<path fill="none" stroke="black" d="M340.41,-334.49C355.27,-337.45 370.56,-340.4 385,-343 445.55,-353.92 612.34,-345.33 658.5,-386 682.46,-407.11 655.02,-433.36 678.5,-455 684.44,-460.48 691.19,-464.97 698.4,-468.65"/>
<polygon fill="black" stroke="black" points="696.57,-471.66 707.13,-472.55 699.43,-465.27 696.57,-471.66"/>
</g>
<!-- c:@S@CompilerDriver@F@compile# -->
<g id="node19" class="node">
<title>c:@S@CompilerDriver@F@compile#</title>
<polygon fill="none" stroke="black" points="340.5,-253 162.5,-253 162.5,-217 340.5,-217 340.5,-253"/>
<text xml:space="preserve" text-anchor="middle" x="251.5" y="-231.12" font-family="Times,serif" font-size="10.00">src/driver/CompilerDriver.cpp::compile</text>
</g>
<!-- c:@S@CompilerDriver@F@runCodeGen# -->
<g id="node20" class="node">
<title>c:@S@CompilerDriver@F@runCodeGen#</title>
<polygon fill="none" stroke="black" points="620.5,-334 423,-334 423,-298 620.5,-298 620.5,-334"/>
<text xml:space="preserve" text-anchor="middle" x="521.75" y="-312.12" font-family="Times,serif" font-size="10.00">src/driver/CompilerDriver.cpp::runCodeGen</text>
</g>
<!-- c:@S@CompilerDriver@F@compile#&#45;&gt;c:@S@CompilerDriver@F@runCodeGen# -->
<g id="edge16" class="edge">
<title>c:@S@CompilerDriver@F@compile#&#45;&gt;c:@S@CompilerDriver@F@runCodeGen#</title>
<path fill="none" stroke="black" d="M292.08,-253.45C318.05,-264.97 353,-279.39 385,-289 393.59,-291.58 402.56,-293.98 411.62,-296.2"/>
<polygon fill="black" stroke="black" points="410.68,-299.57 421.22,-298.47 412.29,-292.76 410.68,-299.57"/>
</g>
<!-- c:@S@CompilerDriver@F@runLexing# -->
<g id="node21" class="node">
<title>c:@S@CompilerDriver@F@runLexing#</title>
<polygon fill="none" stroke="black" points="615.62,-226 427.88,-226 427.88,-190 615.62,-190 615.62,-226"/>
<text xml:space="preserve" text-anchor="middle" x="521.75" y="-204.12" font-family="Times,serif" font-size="10.00">src/driver/CompilerDriver.cpp::runLexing</text>
</g>
<!-- c:@S@CompilerDriver@F@compile#&#45;&gt;c:@S@CompilerDriver@F@runLexing# -->
<g id="edge17" class="edge">
<title>c:@S@CompilerDriver@F@compile#&#45;&gt;c:@S@CompilerDriver@F@runLexing#</title>
<path fill="none" stroke="black" d="M340.71,-226.12C364.81,-223.7 391.16,-221.04 416.08,-218.54"/>
<polygon fill="black" stroke="black" points="416.31,-222.03 425.91,-217.55 415.61,-215.06 416.31,-222.03"/>
</g>
<!-- c:@S@CompilerDriver@F@runParsing# -->
<g id="node22" class="node">
<title>c:@S@CompilerDriver@F@runParsing#</title>
<polygon fill="none" stroke="black" points="616,-280 427.5,-280 427.5,-244 616,-244 616,-280"/>
<text xml:space="preserve" text-anchor="middle" x="521.75" y="-258.12" font-family="Times,serif" font-size="10.00">src/driver/CompilerDriver.cpp::runParsing</text>
</g>
<!-- c:@S@CompilerDriver@F@compile#&#45;&gt;c:@S@CompilerDriver@F@runParsing# -->
<g id="edge18" class="edge">
<title>c:@S@CompilerDriver@F@compile#&#45;&gt;c:@S@CompilerDriver@F@runParsing#</title>
<path fill="none" stroke="black" d="M340.71,-243.88C364.81,-246.3 391.16,-248.96 416.08,-251.46"/>
<polygon fill="black" stroke="black" points="415.61,-254.94 425.91,-252.45 416.31,-247.97 415.61,-254.94"/>
</g>
<!-- c:@S@CompilerDriver@F@runSemantics# -->
<g id="node23" class="node">
<title>c:@S@CompilerDriver@F@runSemantics#</title>
<polygon fill="none" stroke="black" points="621.62,-172 421.88,-172 421.88,-136 621.62,-136 621.62,-172"/>
<text xml:space="preserve" text-anchor="middle" x="521.75" y="-150.12" font-family="Times,serif" font-size="10.00">src/driver/CompilerDriver.cpp::runSemantics</text>
</g>
<!-- c:@S@CompilerDriver@F@compile#&#45;&gt;c:@S@CompilerDriver@F@runSemantics# -->
<g id="edge20" class="edge">
<title>c:@S@CompilerDriver@F@compile#&#45;&gt;c:@S@CompilerDriver@F@runSemantics#</title>
<path fill="none" stroke="black" d="M292.08,-216.55C318.05,-205.03 353,-190.61 385,-181 393.25,-178.52 401.86,-176.21 410.55,-174.06"/>
<polygon fill="black" stroke="black" points="411.21,-177.5 420.12,-171.78 409.59,-170.7 411.21,-177.5"/>
</g>
<!-- c:@S@CompilerDriver@F@runPreprocessing# -->
<g id="node24" class="node">
<title>c:@S@CompilerDriver@F@runPreprocessing#</title>
<polygon fill="none" stroke="black" points="650.5,-56 393,-56 393,-20 650.5,-20 650.5,-56"/>
<text xml:space="preserve" text-anchor="middle" x="521.75" y="-34.12" font-family="Times,serif" font-size="10.00">src/driver/CompilerDriverPreprocess.cpp::runPreprocessing</text>
</g>
<!-- c:@S@CompilerDriver@F@compile#&#45;&gt;c:@S@CompilerDriver@F@runPreprocessing# -->
<g id="edge19" class="edge">
<title>c:@S@CompilerDriver@F@compile#&#45;&gt;c:@S@CompilerDriver@F@runPreprocessing#</title>
<path fill="none" stroke="black" d="M272.47,-216.83C297.84,-194.09 343.32,-154.45 385,-124 415.6,-101.64 451.94,-78.8 479.32,-62.28"/>
<polygon fill="black" stroke="black" points="480.89,-65.42 487.67,-57.27 477.3,-59.41 480.89,-65.42"/>
</g>
<!-- c:@S@CompilerDriver@F@runCodeGen#&#45;&gt;c:@N@cc1@S@IRGenerator@F@hadError#1 -->
<g id="edge22" class="edge">
<title>c:@S@CompilerDriver@F@runCodeGen#&#45;&gt;c:@N@cc1@S@IRGenerator@F@hadError#1</title>
<path fill="none" stroke="black" d="M620.96,-327.12C634.63,-331.95 647.67,-338.68 658.5,-348 676.64,-363.62 660.29,-382.47 678.5,-398 685.8,-404.23 694.12,-409.23 702.96,-413.25"/>
<polygon fill="black" stroke="black" points="701.56,-416.46 712.15,-416.96 704.18,-409.97 701.56,-416.46"/>
</g>
<!-- c:@S@CompilerDriver@F@runCodeGen#&#45;&gt;c:@N@cc1@S@IRGenerator@F@IRGenerator#b# -->
<g id="edge21" class="edge">
<title>c:@S@CompilerDriver@F@runCodeGen#&#45;&gt;c:@N@cc1@S@IRGenerator@F@IRGenerator#b#</title>
<path fill="none" stroke="black" d="M620.83,-306.82C639.06,-305.12 658.38,-303.31 677.47,-301.52"/>
<polygon fill="black" stroke="black" points="677.53,-305.03 687.16,-300.61 676.88,-298.06 677.53,-305.03"/>
</g>
<!-- c:@S@CompilerDriver@F@runCodeGen#&#45;&gt;c:@N@cc1@S@IRGenerator@F@setDebugInfo#b#&amp;1$@N@std@N@__cxx11@S@basic_string&gt;#C#$@N@std@S@char_traits&gt;#C#$@N@std@S@allocator&gt;#C# -->
<g id="edge23" class="edge">
<title>c:@S@CompilerDriver@F@runCodeGen#&#45;&gt;c:@N@cc1@S@IRGenerator@F@setDebugInfo#b#&amp;1$@N@std@N@__cxx11@S@basic_string&gt;#C#$@N@std@S@char_traits&gt;#C#$@N@std@S@allocator&gt;#C#</title>
<path fill="none" stroke="black" d="M620.83,-325.18C638.21,-326.81 656.59,-328.53 674.81,-330.23"/>
<polygon fill="black" stroke="black" points="674.33,-333.7 684.61,-331.15 674.98,-326.73 674.33,-333.7"/>
</g>
<!-- c:@S@CompilerDriver@F@runParsing#&#45;&gt;c:@N@cc1@S@Parser@F@hadError#1 -->
<g id="edge24" class="edge">
<title>c:@S@CompilerDriver@F@runParsing#&#45;&gt;c:@N@cc1@S@Parser@F@hadError#1</title>
<path fill="none" stroke="black" d="M615.87,-243.53C630.15,-240.68 644.72,-237.77 658.5,-235 678.65,-230.95 700.28,-226.58 720.75,-222.43"/>
<polygon fill="black" stroke="black" points="721.39,-225.87 730.5,-220.45 720,-219.01 721.39,-225.87"/>
</g>
<!-- c:@S@CompilerDriver@F@runSemantics#&#45;&gt;c:@N@cc1@S@SemanticAnalyzer@F@hadError#1 -->
<g id="edge26" class="edge">
<title>c:@S@CompilerDriver@F@runSemantics#&#45;&gt;c:@N@cc1@S@SemanticAnalyzer@F@hadError#1</title>
<path fill="none" stroke="black" d="M622.04,-141.95C642.99,-139.41 665.36,-136.7 687.1,-134.06"/>
<polygon fill="black" stroke="black" points="687.4,-137.55 696.9,-132.87 686.56,-130.6 687.4,-137.55"/>
</g>
<!-- c:@N@cc1@S@Preprocessor@F@Preprocessor# -->
<g id="node27" class="node">
<title>c:@N@cc1@S@Preprocessor@F@Preprocessor#</title>
<polygon fill="none" stroke="black" points="926.75,-52 697.75,-52 697.75,-16 926.75,-16 926.75,-52"/>
<text xml:space="preserve" text-anchor="middle" x="812.25" y="-30.12" font-family="Times,serif" font-size="10.00">src/preprocessor/PreprocessorCore.cpp::Preprocessor</text>
</g>
<!-- c:@S@CompilerDriver@F@runPreprocessing#&#45;&gt;c:@N@cc1@S@Preprocessor@F@Preprocessor# -->
<g id="edge25" class="edge">
<title>c:@S@CompilerDriver@F@runPreprocessing#&#45;&gt;c:@N@cc1@S@Preprocessor@F@Preprocessor#</title>
<path fill="none" stroke="black" d="M650.97,-36.22C662.72,-36.06 674.61,-35.89 686.32,-35.73"/>
<polygon fill="black" stroke="black" points="686.03,-39.24 695.98,-35.6 685.93,-32.24 686.03,-39.24"/>
</g>
<!-- c:@F@main#I#**C# -->
<g id="node25" class="node">
<title>c:@F@main#I#**C#</title>
<polygon fill="none" stroke="black" stroke-width="2" points="110,-630 16,-630 16,-594 110,-594 110,-630"/>
<text xml:space="preserve" text-anchor="middle" x="63" y="-608.12" font-family="Times,serif" font-size="10.00">src/main.cpp::main</text>
</g>
<!-- c:@F@main#I#**C#&#45;&gt;c:@S@ArgumentParser@F@ArgumentParser#I#**C# -->
<g id="edge1" class="edge">
<title>c:@F@main#I#**C#&#45;&gt;c:@S@ArgumentParser@F@ArgumentParser#I#**C#</title>
<path fill="none" stroke="black" d="M110.58,-605.26C118.16,-604.16 126.29,-602.98 134.68,-601.77"/>
<polygon fill="black" stroke="black" points="134.94,-605.27 144.33,-600.37 133.94,-598.34 134.94,-605.27"/>
</g>
<!-- c:@F@main#I#**C#&#45;&gt;c:@S@ArgumentParser@F@parse# -->
<g id="edge2" class="edge">
<title>c:@F@main#I#**C#&#45;&gt;c:@S@ArgumentParser@F@parse#</title>
<path fill="none" stroke="black" d="M110.58,-618.74C124.69,-620.79 140.73,-623.11 156.78,-625.43"/>
<polygon fill="black" stroke="black" points="155.98,-628.85 166.38,-626.82 156.98,-621.92 155.98,-628.85"/>
</g>
<!-- c:@F@main#I#**C#&#45;&gt;c:@S@ArgumentParser@F@printUsage#*1C#S -->
<g id="edge3" class="edge">
<title>c:@F@main#I#**C#&#45;&gt;c:@S@ArgumentParser@F@printUsage#*1C#S</title>
<path fill="none" stroke="black" d="M84.91,-630.75C99,-642.47 118.51,-656.99 138,-666 141.57,-667.65 145.26,-669.21 149.02,-670.67"/>
<polygon fill="black" stroke="black" points="147.76,-673.94 158.35,-674.06 150.14,-667.36 147.76,-673.94"/>
</g>
<!-- c:@F@main#I#**C#&#45;&gt;c:@S@ArgumentParser@F@printVersion#S -->
<g id="edge4" class="edge">
<title>c:@F@main#I#**C#&#45;&gt;c:@S@ArgumentParser@F@printVersion#S</title>
<path fill="none" stroke="black" d="M71.7,-630.82C82.69,-655.26 105.23,-697.45 138,-720 139.62,-721.12 141.28,-722.19 142.98,-723.21"/>
<polygon fill="black" stroke="black" points="141.25,-726.25 151.71,-727.9 144.56,-720.09 141.25,-726.25"/>
</g>
<!-- c:@F@main#I#**C#&#45;&gt;c:@S@CompilerDriver@F@CompilerDriver#&amp;1$@S@CompilerOptions# -->
<g id="edge5" class="edge">
<title>c:@F@main#I#**C#&#45;&gt;c:@S@CompilerDriver@F@CompilerDriver#&amp;1$@S@CompilerOptions#</title>
<path fill="none" stroke="black" d="M75.95,-593.03C107.87,-542.37 195.25,-403.69 232.88,-343.97"/>
<polygon fill="black" stroke="black" points="235.71,-346.04 238.08,-335.71 229.79,-342.3 235.71,-346.04"/>
</g>
<!-- c:@F@main#I#**C#&#45;&gt;c:@S@CompilerDriver@F@compile# -->
<g id="edge6" class="edge">
<title>c:@F@main#I#**C#&#45;&gt;c:@S@CompilerDriver@F@compile#</title>
<path fill="none" stroke="black" d="M66.17,-593.09C73.56,-531.39 99.48,-337.2 138,-289 148.33,-276.07 162.51,-266.05 177.32,-258.36"/>
<polygon fill="black" stroke="black" points="178.78,-261.54 186.28,-254.05 175.75,-255.23 178.78,-261.54"/>
</g>
<!-- c:@N@cc1@S@Preprocessor@F@setupBuiltinMacros# -->
<g id="node26" class="node">
<title>c:@N@cc1@S@Preprocessor@F@setupBuiltinMacros#</title>
<polygon fill="none" stroke="black" points="1246.5,-52 974,-52 974,-16 1246.5,-16 1246.5,-52"/>
<text xml:space="preserve" text-anchor="middle" x="1110.25" y="-30.12" font-family="Times,serif" font-size="10.00">src/preprocessor/PreprocessorBuiltins.cpp::setupBuiltinMacros</text>
</g>
<!-- c:@N@cc1@S@Preprocessor@F@Preprocessor#&#45;&gt;c:@N@cc1@S@Preprocessor@F@setupBuiltinMacros# -->
<g id="edge9" class="edge">
<title>c:@N@cc1@S@Preprocessor@F@Preprocessor#&#45;&gt;c:@N@cc1@S@Preprocessor@F@setupBuiltinMacros#</title>
<path fill="none" stroke="black" d="M926.84,-34C938.46,-34 950.37,-34 962.28,-34"/>
<polygon fill="black" stroke="black" points="962.16,-37.5 972.16,-34 962.16,-30.5 962.16,-37.5"/>
</g>
</g>
</svg>
